PathFileType	4	(X/Y/Z)	s10c0101.trc
DataRate	CameraRate	NumFrames	NumMarkers	Units	OrigDataRate	OrigDataStartFrame	OrigNumFrames
200	200	4	49	mm	200	1750	2000
Frame#	Time	racr			lacr			c7			jug			rlel			rdr			llel			ldr			s2			lic			ric			lasi			rasi			rpsi			lpsi			rgt			lgt			rth1			rth2			rth3			rth4			rlfc			rmfc			rsh1			rsh2			rsh3			rsh4			rlmal			rmmal			rcal			rtoe			rmt5			lth1			lth2			lth4			lth3			llfc			lmfc			llmal			lcal			lmt5			lsh1			lsh2			lsh3			lsh4			ltoe			SBIKE			LBIKE			RBIKE			
		X1	Y1	Z1	X2	Y2	Z2	X3	Y3	Z3	X4	Y4	Z4	X5	Y5	Z5	X6	Y6	Z6	X7	Y7	Z7	X8	Y8	Z8	X9	Y9	Z9	X10	Y10	Z10	X11	Y11	Z11	X12	Y12	Z12	X13	Y13	Z13	X14	Y14	Z14	X15	Y15	Z15	X16	Y16	Z16	X17	Y17	Z17	X18	Y18	Z18	X19	Y19	Z19	X20	Y20	Z20	X21	Y21	Z21	X22	Y22	Z22	X23	Y23	Z23	X24	Y24	Z24	X25	Y25	Z25	X26	Y26	Z26	X27	Y27	Z27	X28	Y28	Z28	X29	Y29	Z29	X30	Y30	Z30	X31	Y31	Z31	X32	Y32	Z32	X33	Y33	Z33	X34	Y34	Z34	X35	Y35	Z35	X36	Y36	Z36	X37	Y37	Z37	X38	Y38	Z38	X39	Y39	Z39	X40	Y40	Z40	X41	Y41	Z41	X42	Y42	Z42	X43	Y43	Z43	X44	Y44	Z44	X45	Y45	Z45	X46	Y46	Z46	X47	Y47	Z47	X48	Y48	Z48	X49	Y49	Z49	
1750	8.7500	393.651820	1280.220012	-33.807572	439.748960	1280.401865	-347.134511	358.500841	1341.195844	-203.193217	370.841480	1191.666047	-194.391536	462.545710	1020.162767	17.626511	638.305155	880.817976	-51.697999	468.312547	1021.317748	-469.654754	633.805817	880.059250	-409.701719	-125.490129	1082.934864	-244.536945	40.188683	1100.606062	-397.094290	46.730494	1125.591201	-92.933418	69.367971	1016.058953	-359.367574	57.316854	1042.389580	-109.851276	-94.972536	1143.431797	-192.949535	-83.983324	1146.492629	-305.206676	-36.293206	1012.086985	-47.486435	-50.512003	956.005872	-424.662115	90.903266	948.659874	-33.513357	178.207322	948.720102	-50.808848	252.904681	906.708010	-52.792238	185.089513	982.746996	-66.325901	356.902959	862.386171	-80.990343	335.177467	842.387816	-203.127798	270.739688	787.021498	-42.782356	225.235603	711.412279	-55.859344	151.395522	667.221284	-53.943460	245.681474	694.390519	-83.687019	75.184592	601.167386	-62.670158	99.624180	595.559987	-144.754240	23.594710	620.846913	-110.512828	175.122289	430.416152	-103.330036	100.498146	475.216467	-43.495259	17.134366	844.056089	-435.273595	82.504186	788.773685	-421.322991	112.120639	810.363341	-415.961045	110.684555	705.802907	-405.297557	178.013058	616.798605	-385.194379	170.770719	613.323912	-269.789585	118.101113	249.740107	-378.393840	69.655365	221.115079	-337.797523	237.199825	162.882981	-404.147981	130.841665	504.162499	-415.923107	153.708897	420.962793	-401.853803	129.786265	335.240310	-395.673254	183.326866	424.196535	-377.966129	321.511628	189.807193	-348.712563	-218.211103	833.709371	-215.268257	-103.911802	80.480640	-418.726164	-103.960796	80.448735	-18.319902	
1751	8.7550	392.797405	1280.282856	-32.013815	440.567129	1280.059147	-344.954975	358.259777	1341.180074	-201.799702	370.550599	1191.573745	-192.796020	462.448795	1020.333268	18.997311	638.999340	880.455121	-52.038454	468.152951	1021.406935	-469.269562	633.753775	880.005921	-409.616647	-125.174785	1083.894064	-246.627708	42.255265	1100.465822	-396.888280	45.999755	1128.404018	-93.589898	70.833248	1016.760641	-357.817348	56.106575	1044.658815	-109.908452	-94.982845	1144.670203	-191.707922	-82.774716	1147.025227	-307.206138	-38.605887	1015.397474	-48.846354	-48.940850	956.885746	-426.325802	90.481435	953.622348	-33.570032	177.708916	955.842280	-51.233914	253.347634	915.884361	-53.105826	183.466426	989.909485	-66.781835	360.102184	875.317562	-82.492897	339.621103	854.238384	-203.573786	276.211470	797.989947	-44.121662	232.758049	721.151561	-56.751913	160.053199	675.141606	-54.772736	253.386092	703.757220	-84.967471	85.468435	606.390880	-62.915904	110.161178	601.270923	-145.234973	33.765788	626.075275	-110.803244	185.270631	435.279752	-103.685726	110.874512	480.312091	-43.981639	16.529201	844.467127	-435.684960	80.577673	787.474257	-421.899922	110.522809	808.364737	-416.043820	106.941186	703.728999	-406.756424	170.445447	613.610573	-386.389714	164.172925	609.863453	-270.753221	110.017383	246.792860	-378.577963	61.131613	218.742136	-337.808594	227.846218	157.951349	-404.010084	123.119264	501.095941	-416.583032	145.956151	417.964967	-402.211745	122.299467	332.091723	-396.372471	175.721582	421.168352	-378.541670	312.542443	183.768866	-348.591378	-218.223734	833.727877	-215.264132	-103.929022	80.506653	-418.784720	-103.987236	80.453157	-18.340929	
1752	8.7600	392.130060	1280.392850	-30.249955	441.391716	1279.634702	-342.875714	360.640352	1341.157216	-202.850629	370.437791	1191.402163	-191.139135	462.408589	1020.573695	20.401279	638.920339	880.737501	-51.988267	467.951133	1021.411764	-468.987075	633.704783	879.942938	-409.534667	-124.688446	1084.785188	-248.145248	44.301245	1100.247857	-396.510838	45.426184	1131.298937	-93.943315	72.129978	1017.379382	-356.107234	55.099497	1046.862671	-109.668677	-94.347240	1145.718304	-194.187719	-81.684504	1147.589136	-308.865465	-40.830605	1019.061834	-49.729498	-47.984282	957.404152	-427.315331	89.970448	958.603366	-33.389948	176.962909	962.917429	-51.609267	253.587738	925.029633	-52.942957	181.831957	997.040402	-67.043109	362.762412	888.185638	-83.342388	343.779373	866.653927	-205.489930	281.526663	808.675815	-45.337412	240.219722	730.787499	-57.508317	168.785765	682.829867	-55.523864	261.769084	714.174724	-84.759395	95.174907	611.129849	-63.230843	121.241144	606.502515	-145.847388	43.092922	630.208447	-110.885707	195.591972	439.950853	-103.999678	121.140209	484.707673	-44.577783	15.782126	845.050270	-435.800645	78.736202	786.547612	-422.603227	109.218294	806.745370	-416.198004	103.339368	702.159185	-408.334210	163.235592	611.406844	-387.548232	158.151460	606.978995	-271.793091	101.653163	244.294439	-378.895566	52.528759	217.194928	-337.802548	218.732682	153.969750	-404.500711	115.629154	498.637439	-417.235292	138.300636	415.455057	-402.909286	114.548811	329.757142	-397.118692	168.161140	418.620846	-379.308813	303.337220	178.126791	-348.516463	-218.255680	833.781441	-215.252221	-103.992074	80.471925	-418.734620	-104.007081	80.462150	-18.374348	
1753	8.7650	391.461584	1280.623799	-28.651434	442.214490	1279.107866	-340.948262	360.720806	1341.074767	-201.426480	370.343435	1191.204428	-189.491937	462.326335	1020.881416	21.555960	638.845670	881.115308	-51.968522	467.761218	1021.375116	-468.695802	633.695391	879.886793	-409.472099	-124.603116	1085.458862	-248.916202	46.276606	1100.018885	-396.059883	44.760327	1134.195575	-94.012924	73.245108	1017.916761	-354.337700	54.201347	1049.068149	-109.337447	-93.577882	1146.334920	-196.456550	-80.511010	1148.296339	-310.249952	-42.867451	1023.094913	-50.150366	-47.454218	957.901139	-427.962993	89.372561	963.726074	-33.160920	176.144630	969.984735	-52.034724	253.500656	933.627286	-53.184235	180.180526	1003.841839	-67.368493	364.744047	900.905875	-83.855394	347.846324	878.425837	-207.311510	286.548951	819.255096	-46.058966	247.620563	740.078783	-58.220979	177.487643	690.140438	-56.236458	269.701945	723.880668	-85.296213	104.474514	615.070443	-63.476903	131.212589	611.449148	-145.894767	52.244520	633.533542	-111.258836	206.083823	444.528320	-104.245425	131.265359	488.674730	-44.822656	15.004475	845.936027	-435.975708	76.977557	786.246932	-423.330446	107.793353	805.808193	-416.472138	100.075126	701.329595	-409.875188	156.612039	609.965094	-388.701732	152.512947	604.445679	-273.291065	93.401658	243.010206	-379.688745	43.794753	216.289238	-337.994217	208.412332	149.850064	-403.809046	108.514728	496.897168	-417.997963	130.655798	413.638436	-403.640078	106.476682	328.048422	-397.682301	160.710167	416.593588	-380.301533	293.913849	173.615006	-348.758405	-218.309486	833.849557	-215.272099	-103.981976	80.542032	-418.826809	-104.025578	80.457020	-18.375083	
